{"title":"One Piece 637 [HD 720p] [ENG SUBBED] [GWC].mkv","uid":9812680,"size":81072746,"categoryP":"video","categoryS":"tv_shows","magnet":"?xt=urn:btih:830f9a3bbc55bf7bc584c7b846f2d8654ef7bc07&amp;dn=One+Piece+637+%5BHD+720p%5D+%5BENG+SUBBED%5D+%5BGWC%5D.mkv&amp;tr=udp%3A%2F%2Ftracker.openbittorrent.com%3A80&amp;tr=udp%3A%2F%2Fopen.demonii.com%3A1337&amp;tr=udp%3A%2F%2Ftracker.coppersurfer.tk%3A6969&amp;tr=udp%3A%2F%2Fexodus.desync.com%3A6969","seeders":0,"leechers":1,"uploader":"canc232","files":1,"time":1395567199,"description":"One Piece 637 [HD 720p] [ENG SUBBED] [GWC] \n\n\nSTORYLINE :\nIt was a time when pirates ruled the seas. Several bands of pirates were battling over the great hidden treasure, One Piece, which was left by the now legendary pirate captain, Gold Roger. There was a young boy who admired the pirates, his name was Monkey D. Luffy. One day, he mistakenly eats the devil's fruit and turns himself into a rubber human being.\nTen years have passed since that incident. Luffy sets out to sail all alone. He sets out to become a great pirate captain and that's when his great adventure begins. &quot;I'm going to be the Pirate King! I'm going to get One Piece!&quot;. \n\n\nTHUMBNAIL IMAGE : &lt;a href=&quot;\nhttp://img513.imageshack.us/img513/7533/5r0w.jpg&quot; rel=&quot;nofollow&quot; target=&quot;_NEW&quot;&gt;\nhttp://img513.imageshack.us/img513/7533/5r0w.jpg&lt;/a&gt;\n\n\nMEDIA INFO :\nGeneral \nFormat : Matroska \nFile size : 77.3 MiB \nDuration : 20mn 34s \nOverall bit rate mode : Variable \nOverall bit rate : 525 Kbps \nWriting application : mkvmerge v6.8.0 ('Theme for Great Cities') \n\nVideo \nFormat : AVC \nFormat profile : &lt;a class=&quot;__cf_email__&quot; href=&quot;/cdn-cgi/l/email-protection&quot; data-cfemail=&quot;f7bf9e909fb7bbc3d9c6&quot;&gt;[email&amp;#160;protected]&lt;/a&gt;&lt;script cf-hash='f9e31' type=&quot;text/javascript&quot;&gt;\n/* &lt;![CDATA[ */!function(){try{var t=&quot;currentScript&quot;in document?document.currentScript:function(){for(var t=document.getElementsByTagName(&quot;script&quot;),e=t.length;e--;)if(t[e].getAttribute(&quot;cf-hash&quot;))return t[e]}();if(t&amp;&amp;t.previousSibling){var e,r,n,i,c=t.previousSibling,a=c.getAttribute(&quot;data-cfemail&quot;);if(a){for(e=&quot;&quot;,r=parseInt(a.substr(0,2),16),n=2;a.length-n;n+=2)i=parseInt(a.substr(n,2),16)^r,e+=String.fromCharCode(i);e=document.createTextNode(e),c.parentNode.replaceChild(e,c)}}}catch(u){}}();/* ]]&gt; */&lt;/script&gt; \nFormat settings, CABAC : Yes \nFormat settings, ReFrames : 10 frames \nDuration : 20mn 34s \nBit rate : 459 Kbps \nWidth : 1 280 pixels \nHeight : 720 pixels \nDisplay aspect ratio : 16:9 \nFrame rate : 29.970 fps \nStream size : 67.5 MiB (87%) \nTitle : One Piece 637 [HD 720p] [ENG SUBBED] [GWC] \n\nAudio \nFormat : Vorbis \nDuration : 20mn 34s \nBit rate mode : Variable \nChannel(s) : 2 channels \nSampling rate : 44.1 KHz \nStream size : 8.24 MiB (11%) \nWriting library : aoTuV 20110424 \n\nText \nFormat : UTF-8 \nTitle : [GWC] \nLanguage : English","torrent":{"xt":"urn:btih:830f9a3bbc55bf7bc584c7b846f2d8654ef7bc07","amp;dn":"One+Piece+637+%5BHD+720p%5D+%5BENG+SUBBED%5D+%5BGWC%5D.mkv","amp;tr":["udp%3A%2F%2Ftracker.openbittorrent.com%3A80","udp%3A%2F%2Fopen.demonii.com%3A1337","udp%3A%2F%2Ftracker.coppersurfer.tk%3A6969","udp%3A%2F%2Fexodus.desync.com%3A6969"],"infoHash":"830f9a3bbc55bf7bc584c7b846f2d8654ef7bc07","infoHashBuffer":{"type":"Buffer","data":[131,15,154,59,188,85,191,123,197,132,199,184,70,242,216,101,78,247,188,7]},"announce":[],"urlList":[]}}